HIERARCHY
ROOT Hips
{
	OFFSET	0.000000	0.000000	0.000000
	CHANNELS 6 Xposition Yposition Zposition Zrotation Xrotation Yrotation
	JOINT LeftUpLeg
	{
		OFFSET	12.830505	-7.049846	-1.643436
		CHANNELS 3 Zrotation Xrotation Yrotation
		JOINT LeftLeg
		{
			OFFSET	0.620834	-39.957500	-1.919341
			CHANNELS 3 Zrotation Xrotation Yrotation
			JOINT LeftFoot
			{
				OFFSET	-0.413890	-44.704761	-3.870325
				CHANNELS 3 Zrotation Xrotation Yrotation
				JOINT LeftFootHeel
				{
					OFFSET	0.164738	-8.918193	-6.555130
					CHANNELS 3 Zrotation Xrotation Yrotation
					End Site
					{
						OFFSET	-0.604053	0.000000	21.044330
					}
				}
			}
		}
	}
	JOINT RightUpLeg
	{
		OFFSET	-12.830505	-7.049846	-1.643436
		CHANNELS 3 Zrotation Xrotation Yrotation
		JOINT RightLeg
		{
			OFFSET	-0.620834	-39.957500	-1.919341
			CHANNELS 3 Zrotation Xrotation Yrotation
			JOINT RightFoot
			{
				OFFSET	0.413890	-44.704761	-3.870325
				CHANNELS 3 Zrotation Xrotation Yrotation
				JOINT RightFootHeel
				{
					OFFSET	-0.164738	-8.918193	-6.555130
					CHANNELS 3 Zrotation Xrotation Yrotation
					End Site
					{
						OFFSET	0.604053	0.000000	21.044330
					}
				}
			}
		}
	}
	JOINT Spine
	{
		OFFSET	0.000000	12.498170	1.820647
		CHANNELS 3 Zrotation Xrotation Yrotation
		JOINT Spine1
		{
			OFFSET	0.000000	7.620000	0.000000
			CHANNELS 3 Zrotation Xrotation Yrotation
			JOINT LeftShoulder
			{
				OFFSET	9.167800	29.136339	-5.551221
				CHANNELS 3 Zrotation Xrotation Yrotation
				JOINT LeftArm
				{
					OFFSET	12.133453	-3.880866	1.461963
					CHANNELS 3 Zrotation Xrotation Yrotation
					JOINT LeftForeArm
					{
						OFFSET	2.507115	-31.664908	-1.069404
						CHANNELS 3 Zrotation Xrotation Yrotation
						JOINT LeftHand
						{
							OFFSET	4.116172	-24.512624	5.009439
							CHANNELS 3 Zrotation Xrotation Yrotation
							End Site
							{
								OFFSET	-0.213136	-10.931856	2.182134
							}
						}
					}
				}
			}
			JOINT RightShoulder
			{
				OFFSET	-9.167800	29.136339	-5.551221
				CHANNELS 3 Zrotation Xrotation Yrotation
				JOINT RightArm
				{
					OFFSET	-12.133453	-3.880866	1.461963
					CHANNELS 3 Zrotation Xrotation Yrotation
					JOINT RightForeArm
					{
						OFFSET	-2.507115	-31.664908	-1.069404
						CHANNELS 3 Zrotation Xrotation Yrotation
						JOINT RightHand
						{
							OFFSET	-4.116172	-24.512624	5.009439
							CHANNELS 3 Zrotation Xrotation Yrotation
							End Site
							{
								OFFSET	0.213136	-10.931856	2.182134
							}
						}
					}
				}
			}
			JOINT Neck
			{
				OFFSET	0.000000	32.926272	-3.635654
				CHANNELS 3 Zrotation Xrotation Yrotation
				JOINT Head
				{
					OFFSET	0.000000	12.481178	4.646143
					CHANNELS 3 Zrotation Xrotation Yrotation
					End Site
					{
						OFFSET	0.000000	17.715204	-2.222063
					}
				}
			}
		}
	}
}
MOTION
Frames:     6
Frame Time: 0.016667
0.000000	103.165368	0.000000	0.021428	0.135582	-0.095140	-0.016319	-0.128223	0.135621	0.057290	0.035609	0.214224	-0.062352	-0.042760	-0.254783	0.	0.	0.	-0.050297	-0.069836	-0.239240	-0.004360	-0.014570	0.122968	0.033619	-0.051162	0.211319	0.	0.	0.	0.000000	0.000000	-0.000001	0.141874	0.111066	0.502056	0.141941	-0.113576	-0.195168	0.072862	0.124658	-0.507763	0.075152	-0.027977	-0.441277	0.209216	-0.759351	0.790143	0.347796	-0.200686	-0.652261	-0.822703	-0.153635	0.682200	0.521096	-0.328736	0.172058	-0.540903	-0.653998	1.244303	0.393447	-0.222426	-0.302324	-0.688436	0.415042	0.743762	
-0.000408	103.165717	0.003533	0.025837	0.155060	-0.097375	-0.020690	-0.147709	0.137839	0.057290	0.035609	0.214224	-0.062352	-0.042760	-0.254783	0.	0.	0.	-0.054670	-0.089324	-0.237034	-0.004887	-0.013726	0.119899	0.034148	-0.052004	0.214391	0.	0.	0.	0.000000	0.000000	0.000000	0.146262	0.140172	0.508955	0.132733	-0.162094	-0.199695	0.080098	0.148752	-0.503921	0.068127	-0.052139	-0.445105	0.096149	-0.772162	0.922992	0.358028	-0.251885	-0.638840	-0.851700	-0.107491	0.696183	0.529518	-0.349725	0.131029	-0.534153	-0.674090	1.227552	0.409135	-0.264598	-0.315517	-0.708805	0.424047	0.749523	
-0.000199	103.165746	0.005857	0.027389	0.161912	-0.098161	-0.022228	-0.154565	0.138618	0.057290	0.035609	0.214224	-0.062352	-0.042760	-0.254783	0.	0.	0.	-0.056209	-0.096179	-0.236258	-0.005984	-0.011999	0.113583	0.035248	-0.053730	0.220706	0.	0.	0.	0.000000	0.000000	0.000000	0.147372	0.148002	0.511156	0.129946	-0.176755	-0.201069	0.082440	0.156561	-0.502679	0.065852	-0.059970	-0.446343	0.059266	-0.768207	0.984063	0.362453	-0.267546	-0.633563	-0.862177	-0.092666	0.701725	0.533923	-0.365465	0.104784	-0.527672	-0.672651	1.224815	0.413288	-0.274318	-0.318680	-0.713934	0.425188	0.750110	
0.000457	103.165852	0.013219	0.032240	0.183302	-0.100618	-0.027034	-0.175965	0.141050	0.057290	0.035609	0.214224	-0.062352	-0.042760	-0.254783	0.	0.	0.	-0.061018	-0.117581	-0.233839	-0.009460	-0.006465	0.093432	0.038734	-0.059256	0.240863	0.	0.	0.	0.000000	0.000000	-0.000001	0.147241	0.152604	0.516124	0.125017	-0.202713	-0.203495	0.089260	0.179279	-0.499060	0.059227	-0.082751	-0.449956	-0.004986	-0.757647	1.180552	0.378797	-0.296424	-0.616440	-0.891827	-0.062985	0.724480	0.545794	-0.397937	0.020748	-0.530488	-0.660913	1.237147	0.428339	-0.275965	-0.324378	-0.733802	0.400709	0.753301	
0.001021	103.165891	0.018375	0.035348	0.197027	-0.102196	-0.030498	-0.190303	0.139377	0.057675	0.036219	0.217460	-0.062352	-0.042760	-0.254783	0.	0.	0.	-0.064098	-0.131312	-0.232286	-0.012057	-0.002342	0.078386	0.041341	-0.063372	0.255909	0.	0.	0.	0.000001	0.000000	-0.000002	0.145135	0.144336	0.518247	0.123984	-0.208163	-0.204007	0.093932	0.194878	-0.496591	0.054686	-0.098392	-0.452427	-0.019876	-0.752468	1.290842	0.390321	-0.303584	-0.605457	-0.907469	-0.059382	0.738765	0.548688	-0.386496	-0.012872	-0.559726	-0.712494	1.215134	0.441332	-0.265111	-0.327396	-0.746876	0.387298	0.755086	
0.001842	103.165504	0.025636	0.036227	0.205758	-0.112727	-0.032964	-0.201594	0.136244	0.059311	0.038782	0.231107	-0.062352	-0.042760	-0.254783	0.	0.	0.	-0.065323	-0.139440	-0.224953	-0.014474	0.001494	0.065317	0.044158	-0.067817	0.272166	0.	0.	0.	0.000000	0.000000	0.000000	0.147690	0.157033	0.527348	0.120348	-0.229529	-0.202519	0.099002	0.211766	-0.493916	0.046659	-0.114338	-0.455080	-0.039086	-0.749090	1.372754	0.397025	-0.326343	-0.594428	-0.919019	-0.063153	0.747001	0.552047	-0.438517	-0.054580	-0.598416	-0.719250	1.202451	0.452884	-0.269941	-0.328754	-0.761097	0.373696	0.757285	
